<?xml version="1.0" encoding="UTF-8"?>
<svg version="1.1" xmlns="http://www.w3.org/2000/svg" width="357" height="158">
<path d="M0 0 C117.81 0 235.62 0 357 0 C357 52.14 357 104.28 357 158 C239.19 158 121.38 158 0 158 C0 105.86 0 53.72 0 0 Z " fill="#FDFDFE" transform="translate(0,0)"/>
<path d="M0 0 C4.37288702 1.31753292 5.20409679 2.59194628 7.3828125 6.41210938 C7.74890625 7.11013672 8.115 7.80816406 8.4921875 8.52734375 C8.88148437 9.22150391 9.27078125 9.91566406 9.671875 10.63085938 C14.16015756 18.68015779 15.43318502 27.68210121 12.86328125 36.75 C11.91414381 38.68177384 10.89366584 40.35999551 9.6171875 42.08984375 C8.9984375 42.99734375 8.3796875 43.90484375 7.7421875 44.83984375 C2.85035887 50.019427 -2.6493982 52.62980218 -9.6796875 53.49609375 C-19.24803852 53.75586799 -25.02344923 51.94224022 -32.1171875 45.51953125 C-36.68229908 40.64851013 -41.84844723 33.63194857 -42.640625 26.8984375 C-42.4453125 25.02734375 -42.4453125 25.02734375 -41.3828125 22.08984375 C-38.11482701 19.91118675 -37.17376212 19.36775811 -33.3828125 20.08984375 C-29.28199522 24.08551187 -26.67442457 28.83544083 -23.91015625 33.8203125 C-22.25011616 36.28702169 -20.9615702 37.61559933 -18.3828125 39.08984375 C-14.04543587 39.87607516 -9.42118589 40.10299975 -5.40234375 38.10546875 C-2.63659148 35.89286693 -0.38459772 33.4959135 0.6171875 30.08984375 C1.2291931 23.41490262 -1.05093542 19.63589641 -4.62695312 14.33984375 C-6.69669556 11.05756195 -7.38473654 9.20030613 -7.31640625 5.27734375 C-6.0119545 0.82365076 -4.57612768 0.12153688 0 0 Z " fill="#8376FF" transform="translate(66.3828125,87.91015625)"/>
<path d="M0 0 C7.48218748 5.10978657 12.63995562 12.2209339 16.2421875 20.53125 C16.65926203 25.79523612 16.65926203 25.79523612 15.1796875 28.40625 C11.86340551 30.33183309 9.99433264 30.29439816 6.2421875 29.53125 C3.77296322 26.81754806 2.08668455 23.68836532 0.2421875 20.53125 C-0.79591658 19.03486095 -1.85730305 17.55425529 -2.9453125 16.09375 C-3.41324219 15.45566406 -3.88117187 14.81757812 -4.36328125 14.16015625 C-6.23063591 11.97896048 -7.94168525 10.66493942 -10.80859375 10.1953125 C-16.30054922 10.10046007 -19.47728349 10.76030778 -23.7578125 14.53125 C-26.99099691 18.5188441 -27.18253876 21.48115114 -26.7578125 26.53125 C-25.68159084 29.23155631 -24.25424031 31.66894432 -22.7578125 34.15625 C-18.09248124 42.00535462 -18.09248124 42.00535462 -18.7578125 46.53125 C-19.8203125 48.34375 -19.8203125 48.34375 -21.7578125 49.53125 C-25.1953125 50.03125 -25.1953125 50.03125 -28.7578125 49.53125 C-35.74211129 42.03925169 -40.19026898 32.85799085 -40.4453125 22.65625 C-39.96337998 13.70342673 -37.27870334 8.14050169 -30.7265625 2.07421875 C-21.48330305 -5.17000245 -10.17016707 -5.84865838 0 0 Z " fill="#8376FF" transform="translate(55.7578125,30.46875)"/>
<path d="M0 0 C3.96 0 7.92 0 12 0 C12.33 13.2 12.66 26.4 13 40 C15.64 36.37 18.28 32.74 21 29 C25.66543357 28.50654068 28.59296368 28.27283901 33 29 C31.37815499 32.58513106 29.20743761 35.58992323 26.875 38.75 C26.15054687 39.73484375 25.42609375 40.7196875 24.6796875 41.734375 C24.12539063 42.48203125 23.57109375 43.2296875 23 44 C25.09710919 48.86252791 28.705049 52.542534 32.1015625 56.5390625 C34 59 34 59 34 61 C29.51936098 61.61472182 25.45714498 61.86398477 21 61 C17.56935789 58.11157164 15.27281394 54.84524413 13 51 C12.67 54.3 12.34 57.6 12 61 C8.04 61 4.08 61 0 61 C0 40.87 0 20.74 0 0 Z " fill="#2C2839" transform="translate(280,39)"/>
<path d="M0 0 C3.63 0 7.26 0 11 0 C11 10.23 11 20.46 11 31 C11.99 30.34 12.98 29.68 14 29 C18.65247288 28.36221512 23.72857899 27.91404443 28.05078125 29.98046875 C30.85721013 32.24371784 32.67909259 34.68615767 34 38 C34.22705078 40.56542969 34.22705078 40.56542969 34.1953125 43.421875 C34.18886719 44.44667969 34.18242187 45.47148438 34.17578125 46.52734375 C34.15902344 47.59082031 34.14226562 48.65429688 34.125 49.75 C34.11597656 50.82894531 34.10695312 51.90789062 34.09765625 53.01953125 C34.0741142 55.67978249 34.03824397 58.33991949 34 61 C30.37 61 26.74 61 23 61 C22.95101562 59.57945313 22.90203125 58.15890625 22.8515625 56.6953125 C22.77654064 54.83852144 22.70099256 52.98175159 22.625 51.125 C22.5940625 50.18785156 22.563125 49.25070313 22.53125 48.28515625 C22.49257812 47.38925781 22.45390625 46.49335937 22.4140625 45.5703125 C22.36693115 44.32918701 22.36693115 44.32918701 22.31884766 43.06298828 C22.17400863 40.78013915 22.17400863 40.78013915 20 39 C17 38.66666667 17 38.66666667 14 39 C11.56085508 41.43914492 11.71337477 42.21446431 11.5859375 45.5703125 C11.52792969 46.91416016 11.52792969 46.91416016 11.46875 48.28515625 C11.42234375 49.69087891 11.42234375 49.69087891 11.375 51.125 C11.31699219 52.54232422 11.31699219 52.54232422 11.2578125 53.98828125 C11.1633918 56.3251935 11.08060102 58.6625703 11 61 C7.37 61 3.74 61 0 61 C0 40.87 0 20.74 0 0 Z " fill="#252132" transform="translate(153,39)"/>
<path d="M0 0 C2.31 0 4.62 0 7 0 C7.33 1.32 7.66 2.64 8 4 C8.7425 3.34 9.485 2.68 10.25 2 C15.02588615 -1.15367304 20.52433838 -0.99557484 26 0 C29.54044891 1.97494429 32.1800709 4.3601418 34 8 C34.08471364 9.81341842 34.10721083 11.62994161 34.09765625 13.4453125 C34.09443359 14.52167969 34.09121094 15.59804687 34.08789062 16.70703125 C34.07532227 18.39892578 34.07532227 18.39892578 34.0625 20.125 C34.05798828 21.26066406 34.05347656 22.39632812 34.04882812 23.56640625 C34.03701628 26.37762647 34.01908041 29.18881972 34 32 C30.37 32 26.74 32 23 32 C22.95101563 30.57945313 22.90203125 29.15890625 22.8515625 27.6953125 C22.77654064 25.83852144 22.70099256 23.98175159 22.625 22.125 C22.5940625 21.18785156 22.563125 20.25070313 22.53125 19.28515625 C22.49257813 18.38925781 22.45390625 17.49335937 22.4140625 16.5703125 C22.3826416 15.74289551 22.3512207 14.91547852 22.31884766 14.06298828 C22.17400863 11.78013915 22.17400863 11.78013915 20 10 C17 9.66666667 17 9.66666667 14 10 C11.56085508 12.43914492 11.71337477 13.21446431 11.5859375 16.5703125 C11.52792969 17.91416016 11.52792969 17.91416016 11.46875 19.28515625 C11.42234375 20.69087891 11.42234375 20.69087891 11.375 22.125 C11.31699219 23.54232422 11.31699219 23.54232422 11.2578125 24.98828125 C11.1633918 27.3251935 11.08060102 29.6625703 11 32 C7.37 32 3.74 32 0 32 C0 21.44 0 10.88 0 0 Z " fill="#232031" transform="translate(240,68)"/>
<path d="M0 0 C1.03785645 -0.01519684 1.03785645 -0.01519684 2.09667969 -0.03070068 C15.1576203 -0.08006957 15.1576203 -0.08006957 18.86328125 3.5546875 C20.87585809 6.9829246 22.10799772 10.21920119 23.3125 14 C24.43303703 15.82087268 25.59664015 17.61634558 26.8125 19.375 C29.20475468 23.38381915 30.18345171 26.25815178 29.3125 31 C28.1875 32.9375 28.1875 32.9375 26.3125 34 C23.4375 34.5625 23.4375 34.5625 20.3125 34 C15.05047252 29.14274387 11.58834476 22.30623718 8.3125 16 C8.3125 15.34 8.3125 14.68 8.3125 14 C7.63670898 14.02618408 6.96091797 14.05236816 6.26464844 14.0793457 C3.19750288 14.18339264 0.13072842 14.24834947 -2.9375 14.3125 C-4.53271484 14.3753418 -4.53271484 14.3753418 -6.16015625 14.43945312 C-14.03272684 14.56323568 -14.03272684 14.56323568 -17.42578125 11.64453125 C-18.6875 9 -18.6875 9 -18.625 6.375 C-15.52195763 -1.48604068 -7.28358501 0.0982834 0 0 Z " fill="#8377FF" transform="translate(30.6875,87)"/>
<path d="M0 0 C2.5492811 2.68507816 4.22767769 5.76697248 6 9 C6.48984375 9.8353125 6.9796875 10.670625 7.484375 11.53125 C11 17.61446629 11 17.61446629 11 20 C11.68102783 19.98952637 12.36205566 19.97905273 13.0637207 19.96826172 C16.14660966 19.92671122 19.22943971 19.90067689 22.3125 19.875 C23.38435547 19.85824219 24.45621094 19.84148437 25.56054688 19.82421875 C26.58857422 19.81777344 27.61660156 19.81132813 28.67578125 19.8046875 C29.62364502 19.79421387 30.57150879 19.78374023 31.5480957 19.77294922 C34 20 34 20 37 22 C37.36328125 23.875 37.36328125 23.875 37.3125 26 C37.30863281 26.70125 37.30476563 27.4025 37.30078125 28.125 C37 30 37 30 35 32 C32.56255103 32.17488254 30.2406392 32.23177405 27.8046875 32.1953125 C27.09724396 32.1924826 26.38980042 32.18965271 25.66091919 32.18673706 C23.3987749 32.17553137 21.13702485 32.15042679 18.875 32.125 C17.34245363 32.11497067 15.80990106 32.10584474 14.27734375 32.09765625 C10.51807699 32.07559086 6.75910536 32.04105896 3 32 C2.71278076 31.48091064 2.42556152 30.96182129 2.12963867 30.42700195 C0.8165026 28.05499613 -0.49798679 25.68374289 -1.8125 23.3125 C-2.26431641 22.49587891 -2.71613281 21.67925781 -3.18164062 20.83789062 C-5.00190767 17.55609529 -6.81405545 14.29807597 -8.80078125 11.11328125 C-10.43268327 8.23751906 -10.42374908 6.24874292 -10 3 C-7.70895414 -1.0430221 -4.21913191 -0.85812852 0 0 Z " fill="#8275FF" transform="translate(46,48)"/>
<path d="M0 0 C0.79792969 0.00580078 1.59585938 0.01160156 2.41796875 0.01757812 C6.34034085 0.09943063 9.51582634 0.17686692 12.875 2.4375 C12.35231534 5.20026177 11.76630413 7.7635876 10.875 10.4375 C6.255 9.7775 1.635 9.1175 -3.125 8.4375 C-2.795 9.4275 -2.465 10.4175 -2.125 11.4375 C0.83192424 12.61400692 3.83233497 13.41575137 6.89453125 14.27734375 C10.13593832 15.53907101 11.73232568 16.71971357 13.875 19.4375 C14.47570929 23.56737637 14.34542865 25.65345224 12.1875 29.25 C7.12350985 34.04026095 1.71233522 33.79010861 -4.94140625 33.70703125 C-8.97375475 33.36564224 -11.6165451 32.39570739 -15.125 30.4375 C-14.86938677 28.0943787 -14.53229228 25.75906597 -14.125 23.4375 C-13.465 23.1075 -12.805 22.7775 -12.125 22.4375 C-11.25875 22.746875 -10.3925 23.05625 -9.5 23.375 C-5.44984106 24.65005004 -2.35024121 24.58319797 1.875 24.4375 C1.875 23.4475 1.875 22.4575 1.875 21.4375 C1.06675781 21.26734375 0.25851563 21.0971875 -0.57421875 20.921875 C-12.3077121 18.26096215 -12.3077121 18.26096215 -15.125 14.4375 C-15.88392462 11.25240693 -16.15291028 8.56340152 -15.125 5.4375 C-10.44029703 0.21253903 -6.81699402 -0.28357805 0 0 Z " fill="#272335" transform="translate(132.125,67.5625)"/>
<path d="M0 0 C2.31 0 4.62 0 7 0 C7.33 1.32 7.66 2.64 8 4 C8.825 3.34 9.65 2.68 10.5 2 C14.41111392 -0.61979602 17.3749914 -0.45491888 22 0 C22.99 0.66 23.98 1.32 25 2 C24.01 4.97 23.02 7.94 22 11 C20.72125 10.95875 19.4425 10.9175 18.125 10.875 C15.98128508 10.75787127 15.98128508 10.75787127 14 11 C11.6031335 13.3968665 11.71718867 14.07028314 11.5859375 17.3515625 C11.52792969 18.62773438 11.52792969 18.62773438 11.46875 19.9296875 C11.42234375 21.26386719 11.42234375 21.26386719 11.375 22.625 C11.31699219 23.97078125 11.31699219 23.97078125 11.2578125 25.34375 C11.16341224 27.56215605 11.08061195 29.78105013 11 32 C7.37 32 3.74 32 0 32 C0 21.44 0 10.88 0 0 Z " fill="#272334" transform="translate(193,68)"/>
<path d="M0 0 C1.32 0.66 2.64 1.32 4 2 C2.68 4.97 1.36 7.94 0 11 C-1.11375 10.95875 -2.2275 10.9175 -3.375 10.875 C-7.04366025 10.58878141 -7.04366025 10.58878141 -9 13 C-9.36894582 15.03060659 -9.36894582 15.03060659 -9.4140625 17.3515625 C-9.47207031 18.62773438 -9.47207031 18.62773438 -9.53125 19.9296875 C-9.57765625 21.26386719 -9.57765625 21.26386719 -9.625 22.625 C-9.68300781 23.97078125 -9.68300781 23.97078125 -9.7421875 25.34375 C-9.83658776 27.56215605 -9.91938805 29.78105013 -10 32 C-13.63 32 -17.26 32 -21 32 C-21 21.77 -21 11.54 -21 1 C-18.69 1 -16.38 1 -14 1 C-13.34 1.66 -12.68 2.32 -12 3 C-11.505 2.505 -11.01 2.01 -10.5 1.5 C-7.05196242 -0.56882255 -3.93978529 -0.59250677 0 0 Z " fill="#242032" transform="translate(339,68)"/>
<path d="M0 0 C3.63 0 7.26 0 11 0 C11 10.23 11 20.46 11 31 C7.37 31 3.74 31 0 31 C0 20.77 0 10.54 0 0 Z " fill="#201C2E" transform="translate(222,69)"/>
<path d="M0 0 C2 1.0625 2 1.0625 3 3 C2.66666667 9.33333333 2.66666667 9.33333333 0 12 C-3.4375 12.375 -3.4375 12.375 -7 12 C-9.42061048 9.89172636 -9.9127007 8.59654522 -10.375 5.4375 C-10 3 -10 3 -8.9375 1.1875 C-5.90624457 -0.67036623 -3.46577141 -0.37133265 0 0 Z " fill="#282436" transform="translate(231,48)"/>
</svg>
